<?xml version="1.0" standalone="no"?>
<svg viewBox="0.0 0.0 3264.09912109375 3274.662841796875" style="background-color:#FBF9F8" version="1.1" xmlns="http://www.w3.org/2000/svg" xmlns:xlink="http://www.w3.org/1999/xlink" xml:space="preserve" x="227.0px" y="227.0px" width="2810.09912109375" height="2820.662841796875">
<g transform="matrix(1.0, 0.0, 0.0, 1.0, 0.0, 0.0)"></g>
<g transform="matrix(1.0, 0.0, 0.0, 1.0, 0.0, 0.0)"><path d="M 1728.0989990234375,1983.11279296875 L 1728.0989990234375,1983.11279296875 C 1558.0989990234375,1983.11279296875 1474.0989990234375,563.11279296875 1304.0989990234375,563.11279296875 " stroke="#82CDAB" fill="none" stroke-width="6.0" stroke-dasharray="" stroke-dashoffset="0.0" stroke-linecap="round"></path></g>
<g transform="matrix(1.0, 0.0, 0.0, 1.0, 0.0, 0.0)"><path d="M 1728.0989990234375,1983.11279296875 L 1728.0989990234375,1983.11279296875 C 1801.0989990234375,1983.11279296875 1837.0989990234375,950.11279296875 1910.0989990234375,950.11279296875 " stroke="#91A5D1" fill="none" stroke-width="6.0" stroke-dasharray="" stroke-dashoffset="0.0" stroke-linecap="round"></path></g>
<g transform="matrix(1.0, 0.0, 0.0, 1.0, 0.0, 0.0)"><path d="M 1728.0989990234375,1983.11279296875 L 1728.0989990234375,1983.11279296875 C 1801.0989990234375,1983.11279296875 1837.0989990234375,3015.11279296875 1910.0989990234375,3015.11279296875 " stroke="#44ADAE" fill="none" stroke-width="6.0" stroke-dasharray="" stroke-dashoffset="0.0" stroke-linecap="round"></path></g>
<g transform="matrix(1.0, 0.0, 0.0, 1.0, 0.0, 0.0)"><path d="M 1728.0989990234375,1983.11279296875 L 1728.0989990234375,1983.11279296875 C 1655.0989990234375,1983.11279296875 1619.0989990234375,2728.11279296875 1546.0989990234375,2728.11279296875 " stroke="#E3BB82" fill="none" stroke-width="6.0" stroke-dasharray="" stroke-dashoffset="0.0" stroke-linecap="round"></path></g>
<g transform="matrix(1.0, 0.0, 0.0, 1.0, 0.0, 0.0)"><path d="M 1728.0989990234375,1983.11279296875 L 1728.0989990234375,1983.11279296875 C 1801.0989990234375,1983.11279296875 1837.0989990234375,2645.11279296875 1910.0989990234375,2645.11279296875 " stroke="#82CDAB" fill="none" stroke-width="6.0" stroke-dasharray="" stroke-dashoffset="0.0" stroke-linecap="round"></path></g>
<g transform="matrix(1.0, 0.0, 0.0, 1.0, 0.0, 0.0)"><path d="M 1728.0989990234375,1983.11279296875 L 1728.0989990234375,1983.11279296875 C 1655.0989990234375,1983.11279296875 1619.0989990234375,1552.11279296875 1546.0989990234375,1552.11279296875 " stroke="#FECB88" fill="none" stroke-width="6.0" stroke-dasharray="" stroke-dashoffset="0.0" stroke-linecap="round"></path></g>
<g transform="matrix(1.0, 0.0, 0.0, 1.0, 0.0, 0.0)"><path d="M 1728.0989990234375,1983.11279296875 L 1728.0989990234375,1983.11279296875 C 1655.0989990234375,1983.11279296875 1619.0989990234375,2255.11279296875 1546.0989990234375,2255.11279296875 " stroke="#91A5D1" fill="none" stroke-width="6.0" stroke-dasharray="" stroke-dashoffset="0.0" stroke-linecap="round"></path></g>
<g transform="matrix(1.0, 0.0, 0.0, 1.0, 0.0, 0.0)"><path d="M 1728.0989990234375,1983.11279296875 L 1728.0989990234375,1983.11279296875 C 1801.0989990234375,1983.11279296875 1837.0989990234375,1723.11279296875 1910.0989990234375,1723.11279296875 " stroke="#F99C5E" fill="none" stroke-width="6.0" stroke-dasharray="" stroke-dashoffset="0.0" stroke-linecap="round"></path></g>
<g transform="matrix(1.0, 0.0, 0.0, 1.0, 0.0, 0.0)"><path d="M 1728.0989990234375,1983.11279296875 L 1728.0989990234375,1983.11279296875 C 1801.0989990234375,1983.11279296875 1837.0989990234375,2230.11279296875 1910.0989990234375,2230.11279296875 " stroke="#FECB88" fill="none" stroke-width="6.0" stroke-dasharray="" stroke-dashoffset="0.0" stroke-linecap="round"></path></g>
<g transform="matrix(1.0, 0.0, 0.0, 1.0, 0.0, 0.0)"><path d="M 2404.0989990234375,950.11279296875 L 2404.0989990234375,950.11279296875 C 2428.0989990234375,950.11279296875 2440.0989990234375,713.11279296875 2464.0989990234375,713.11279296875 " stroke="#91A5D1" fill="none" stroke-width="4.0" stroke-dasharray="" stroke-dashoffset="0.0" stroke-linecap="round"></path></g>
<g transform="matrix(1.0, 0.0, 0.0, 1.0, 0.0, 0.0)"><path d="M 2404.0989990234375,950.11279296875 L 2404.0989990234375,950.11279296875 C 2428.0989990234375,950.11279296875 2440.0989990234375,1187.11279296875 2464.0989990234375,1187.11279296875 L 2764.0989990234375,1187.11279296875 " stroke="#91A5D1" fill="none" stroke-width="4.0" stroke-dasharray="" stroke-dashoffset="0.0" stroke-linecap="round"></path></g>
<g transform="matrix(1.0, 0.0, 0.0, 1.0, 0.0, 0.0)"><path d="M 1728.0989990234375,1983.11279296875 L 1728.0989990234375,1983.11279296875 C 1655.0989990234375,1983.11279296875 1619.0989990234375,1828.11279296875 1546.0989990234375,1828.11279296875 " stroke="#F99C5E" fill="none" stroke-width="6.0" stroke-dasharray="" stroke-dashoffset="0.0" stroke-linecap="round"></path></g>
<g transform="matrix(1.0, 0.0, 0.0, 1.0, 0.0, 0.0)"><path d="M 1415.0989990234375,1828.11279296875 L 1415.0989990234375,1828.11279296875 C 1391.0989990234375,1828.11279296875 1379.0989990234375,1648.11279296875 1355.0989990234375,1648.11279296875 L 1125.0989990234375,1648.11279296875 " stroke="#F99C5E" fill="none" stroke-width="5.0" stroke-dasharray="" stroke-dashoffset="0.0" stroke-linecap="round"></path></g>
<g transform="matrix(1.0, 0.0, 0.0, 1.0, 0.0, 0.0)"><path d="M 1415.0989990234375,1828.11279296875 L 1415.0989990234375,1828.11279296875 C 1391.0989990234375,1828.11279296875 1379.0989990234375,2008.11279296875 1355.0989990234375,2008.11279296875 L 1057.0989990234375,2008.11279296875 " stroke="#F99C5E" fill="none" stroke-width="5.0" stroke-dasharray="" stroke-dashoffset="0.0" stroke-linecap="round"></path></g>
<g transform="matrix(1.0, 0.0, 0.0, 1.0, 0.0, 0.0)"><path d="M 2438.0989990234375,1723.11279296875 L 2438.0989990234375,1723.11279296875 C 2462.0989990234375,1723.11279296875 2474.0989990234375,1549.11279296875 2498.0989990234375,1549.11279296875 L 2798.0989990234375,1549.11279296875 " stroke="#F99C5E" fill="none" stroke-width="4.0" stroke-dasharray="" stroke-dashoffset="0.0" stroke-linecap="round"></path></g>
<g transform="matrix(1.0, 0.0, 0.0, 1.0, 0.0, 0.0)"><path d="M 2438.0989990234375,1723.11279296875 L 2438.0989990234375,1723.11279296875 C 2462.0989990234375,1723.11279296875 2474.0989990234375,1897.11279296875 2498.0989990234375,1897.11279296875 L 2798.0989990234375,1897.11279296875 " stroke="#F99C5E" fill="none" stroke-width="4.0" stroke-dasharray="" stroke-dashoffset="0.0" stroke-linecap="round"></path></g>
<g transform="matrix(1.0, 0.0, 0.0, 1.0, 0.0, 0.0)"><path d="M 1375.0989990234375,2255.11279296875 L 1375.0989990234375,2255.11279296875 C 1351.0989990234375,2255.11279296875 1339.0989990234375,2117.11279296875 1315.0989990234375,2117.11279296875 L 1027.0989990234375,2117.11279296875 " stroke="#91A5D1" fill="none" stroke-width="5.0" stroke-dasharray="" stroke-dashoffset="0.0" stroke-linecap="round"></path></g>
<g transform="matrix(1.0, 0.0, 0.0, 1.0, 0.0, 0.0)"><path d="M 1375.0989990234375,2255.11279296875 L 1375.0989990234375,2255.11279296875 C 1351.0989990234375,2255.11279296875 1339.0989990234375,2394.11279296875 1315.0989990234375,2394.11279296875 L 1024.0989990234375,2394.11279296875 " stroke="#91A5D1" fill="none" stroke-width="5.0" stroke-dasharray="" stroke-dashoffset="0.0" stroke-linecap="round"></path></g>
<g transform="matrix(1.0, 0.0, 0.0, 1.0, 0.0, 0.0)"><path d="M 2042.0989990234375,2230.11279296875 L 2042.0989990234375,2230.11279296875 C 2066.0989990234375,2230.11279296875 2078.0989990234375,2177.11279296875 2102.0989990234375,2177.11279296875 L 2400.0989990234375,2177.11279296875 " stroke="#FECB88" fill="none" stroke-width="5.0" stroke-dasharray="" stroke-dashoffset="0.0" stroke-linecap="round"></path></g>
<g transform="matrix(1.0, 0.0, 0.0, 1.0, 0.0, 0.0)"><path d="M 2042.0989990234375,2230.11279296875 L 2042.0989990234375,2230.11279296875 C 2066.0989990234375,2230.11279296875 2078.0989990234375,2283.11279296875 2102.0989990234375,2283.11279296875 L 2367.0989990234375,2283.11279296875 " stroke="#FECB88" fill="none" stroke-width="5.0" stroke-dasharray="" stroke-dashoffset="0.0" stroke-linecap="round"></path></g>
<g transform="matrix(1.0, 0.0, 0.0, 1.0, 0.0, 0.0)"><path d="M 1375.0989990234375,2728.11279296875 L 1375.0989990234375,2728.11279296875 C 1351.0989990234375,2728.11279296875 1339.0989990234375,2728.11279296875 1315.0989990234375,2728.11279296875 L 1015.0989990234375,2728.11279296875 " stroke="#E3BB82" fill="none" stroke-width="5.0" stroke-dasharray="" stroke-dashoffset="0.0" stroke-linecap="round"></path></g>
<g transform="matrix(1.0, 0.0, 0.0, 1.0, 0.0, 0.0)"><path d="M 1015.0989990234375,2728.11279296875 L 1015.0989990234375,2728.11279296875 C 991.0989990234375,2728.11279296875 979.0989990234375,2728.11279296875 955.0989990234375,2728.11279296875 L 655.0989990234375,2728.11279296875 " stroke="#E3BB82" fill="none" stroke-width="4.0" stroke-dasharray="" stroke-dashoffset="0.0" stroke-linecap="round"></path></g>
<g transform="matrix(1.0, 0.0, 0.0, 1.0, 0.0, 0.0)"><path d="M 1024.0989990234375,2394.11279296875 L 1024.0989990234375,2394.11279296875 C 1000.0989990234375,2394.11279296875 988.0989990234375,2394.11279296875 964.0989990234375,2394.11279296875 L 664.0989990234375,2394.11279296875 " stroke="#91A5D1" fill="none" stroke-width="4.0" stroke-dasharray="" stroke-dashoffset="0.0" stroke-linecap="round"></path></g>
<g transform="matrix(1.0, 0.0, 0.0, 1.0, 0.0, 0.0)"><path d="M 1057.0989990234375,2008.11279296875 L 1057.0989990234375,2008.11279296875 C 1033.0989990234375,2008.11279296875 1021.0989990234375,2008.11279296875 997.0989990234375,2008.11279296875 L 697.0989990234375,2008.11279296875 " stroke="#F99C5E" fill="none" stroke-width="4.0" stroke-dasharray="" stroke-dashoffset="0.0" stroke-linecap="round"></path></g>
<g transform="matrix(1.0, 0.0, 0.0, 1.0, 0.0, 0.0)"><path d="M 1387.0989990234375,1552.11279296875 L 1387.0989990234375,1552.11279296875 C 1363.0989990234375,1552.11279296875 1351.0989990234375,1552.11279296875 1327.0989990234375,1552.11279296875 L 1029.0989990234375,1552.11279296875 " stroke="#FECB88" fill="none" stroke-width="5.0" stroke-dasharray="" stroke-dashoffset="0.0" stroke-linecap="round"></path></g>
<g transform="matrix(1.0, 0.0, 0.0, 1.0, 0.0, 0.0)"><path d="M 1029.0989990234375,1552.11279296875 L 1029.0989990234375,1552.11279296875 C 1005.0989990234375,1552.11279296875 993.0989990234375,1552.11279296875 969.0989990234375,1552.11279296875 L 670.0989990234375,1552.11279296875 " stroke="#FECB88" fill="none" stroke-width="4.0" stroke-dasharray="" stroke-dashoffset="0.0" stroke-linecap="round"></path></g>
<g transform="matrix(1.0, 0.0, 0.0, 1.0, 0.0, 0.0)"><path d="M 1106.0989990234375,563.11279296875 L 1106.0989990234375,563.11279296875 C 1082.0989990234375,563.11279296875 1070.0989990234375,563.11279296875 1046.0989990234375,563.11279296875 L 746.0989990234375,563.11279296875 " stroke="#82CDAB" fill="none" stroke-width="5.0" stroke-dasharray="" stroke-dashoffset="0.0" stroke-linecap="round"></path></g>
<g transform="matrix(1.0, 0.0, 0.0, 1.0, 0.0, 0.0)"><path d="M 746.0989990234375,563.11279296875 L 746.0989990234375,563.11279296875 C 722.0989990234375,563.11279296875 710.0989990234375,563.11279296875 686.0989990234375,563.11279296875 L 391.0989990234375,563.11279296875 " stroke="#82CDAB" fill="none" stroke-width="4.0" stroke-dasharray="" stroke-dashoffset="0.0" stroke-linecap="round"></path></g>
<g transform="matrix(1.0, 0.0, 0.0, 1.0, 0.0, 0.0)"><path d="M 2074.0989990234375,950.11279296875 L 2074.0989990234375,950.11279296875 C 2098.0989990234375,950.11279296875 2110.0989990234375,950.11279296875 2134.0989990234375,950.11279296875 L 2404.0989990234375,950.11279296875 " stroke="#91A5D1" fill="none" stroke-width="5.0" stroke-dasharray="" stroke-dashoffset="0.0" stroke-linecap="round"></path></g>
<g transform="matrix(1.0, 0.0, 0.0, 1.0, 0.0, 0.0)"><path d="M 2105.0989990234375,1723.11279296875 L 2105.0989990234375,1723.11279296875 C 2129.0989990234375,1723.11279296875 2141.0989990234375,1723.11279296875 2165.0989990234375,1723.11279296875 L 2438.0989990234375,1723.11279296875 " stroke="#F99C5E" fill="none" stroke-width="5.0" stroke-dasharray="" stroke-dashoffset="0.0" stroke-linecap="round"></path></g>
<g transform="matrix(1.0, 0.0, 0.0, 1.0, 0.0, 0.0)"><path d="M 2400.0989990234375,2177.11279296875 L 2400.0989990234375,2177.11279296875 C 2424.0989990234375,2177.11279296875 2436.0989990234375,2177.11279296875 2460.0989990234375,2177.11279296875 L 2757.0989990234375,2177.11279296875 " stroke="#FECB88" fill="none" stroke-width="4.0" stroke-dasharray="" stroke-dashoffset="0.0" stroke-linecap="round"></path></g>
<g transform="matrix(1.0, 0.0, 0.0, 1.0, 0.0, 0.0)"><path d="M 2054.0989990234375,2645.11279296875 L 2054.0989990234375,2645.11279296875 C 2078.0989990234375,2645.11279296875 2090.0989990234375,2645.11279296875 2114.0989990234375,2645.11279296875 L 2411.0989990234375,2645.11279296875 " stroke="#82CDAB" fill="none" stroke-width="5.0" stroke-dasharray="" stroke-dashoffset="0.0" stroke-linecap="round"></path></g>
<g transform="matrix(1.0, 0.0, 0.0, 1.0, 0.0, 0.0)"><path d="M 2411.0989990234375,2645.11279296875 L 2411.0989990234375,2645.11279296875 C 2435.0989990234375,2645.11279296875 2447.0989990234375,2645.11279296875 2471.0989990234375,2645.11279296875 L 2761.0989990234375,2645.11279296875 " stroke="#82CDAB" fill="none" stroke-width="4.0" stroke-dasharray="" stroke-dashoffset="0.0" stroke-linecap="round"></path></g>
<g transform="matrix(1.0, 0.0, 0.0, 1.0, 0.0, 0.0)"><path d="M 2125.0989990234375,3015.11279296875 L 2125.0989990234375,3015.11279296875 C 2149.0989990234375,3015.11279296875 2161.0989990234375,3015.11279296875 2185.0989990234375,3015.11279296875 L 2473.0989990234375,3015.11279296875 " stroke="#44ADAE" fill="none" stroke-width="5.0" stroke-dasharray="" stroke-dashoffset="0.0" stroke-linecap="round"></path></g>
<g transform="matrix(1.0, 0.0, 0.0, 1.0, 0.0, 0.0)"><path d="M 2473.0989990234375,3015.11279296875 L 2473.0989990234375,3015.11279296875 C 2497.0989990234375,3015.11279296875 2509.0989990234375,3015.11279296875 2533.0989990234375,3015.11279296875 L 2831.0989990234375,3015.11279296875 " stroke="#44ADAE" fill="none" stroke-width="4.0" stroke-dasharray="" stroke-dashoffset="0.0" stroke-linecap="round"></path></g>
<g transform="matrix(1.0, 0.0, 0.0, 1.0, 0.0, 0.0)"><path d="M 697.0989990234375,2008.11279296875 L 697.0989990234375,2008.11279296875 C 676.0989990234375,2008.11279296875 666.0989990234375,2008.11279296875 645.0989990234375,2008.11279296875 " stroke="#F99C5E" fill="none" stroke-width="3.0" stroke-dasharray="" stroke-dashoffset="0.0" stroke-linecap="round"></path></g>
<g transform="matrix(1.0, 0.0, 0.0, 1.0, 0.0, 0.0)"><path d="M 391.0989990234375,563.11279296875 L 391.0989990234375,563.11279296875 C 370.0989990234375,563.11279296875 360.0989990234375,563.11279296875 339.0989990234375,563.11279296875 " stroke="#82CDAB" fill="none" stroke-width="3.0" stroke-dasharray="" stroke-dashoffset="0.0" stroke-linecap="round"></path></g>
<g transform="matrix(1.0, 0.0, 0.0, 1.0, 0.0, 0.0)"><path d="M 2764.0989990234375,713.11279296875 L 2764.0989990234375,713.11279296875 C 2785.0989990234375,713.11279296875 2795.0989990234375,713.11279296875 2816.0989990234375,713.11279296875 " stroke="#91A5D1" fill="none" stroke-width="3.0" stroke-dasharray="" stroke-dashoffset="0.0" stroke-linecap="round"></path></g>
<g transform="matrix(1.0, 0.0, 0.0, 1.0, 0.0, 0.0)"><path d="M 2798.0989990234375,1549.11279296875 L 2798.0989990234375,1549.11279296875 C 2819.0989990234375,1549.11279296875 2829.0989990234375,1549.11279296875 2850.0989990234375,1549.11279296875 " stroke="#F99C5E" fill="none" stroke-width="3.0" stroke-dasharray="" stroke-dashoffset="0.0" stroke-linecap="round"></path></g>
<g transform="matrix(1.0, 0.0, 0.0, 1.0, 0.0, 0.0)"><path d="M 2757.0989990234375,2177.11279296875 L 2757.0989990234375,2177.11279296875 C 2778.0989990234375,2177.11279296875 2788.0989990234375,2177.11279296875 2809.0989990234375,2177.11279296875 " stroke="#FECB88" fill="none" stroke-width="3.0" stroke-dasharray="" stroke-dashoffset="0.0" stroke-linecap="round"></path></g>
<g transform="matrix(1.0, 0.0, 0.0, 1.0, 0.0, 0.0)"><path d="M 2761.0989990234375,2645.11279296875 L 2761.0989990234375,2645.11279296875 C 2782.0989990234375,2645.11279296875 2792.0989990234375,2645.11279296875 2813.0989990234375,2645.11279296875 " stroke="#82CDAB" fill="none" stroke-width="3.0" stroke-dasharray="" stroke-dashoffset="0.0" stroke-linecap="round"></path></g>
<g transform="matrix(1.0, 0.0, 0.0, 1.0, 0.0, 0.0)"><path d="M 1850.0989990234375,1982.61279296875 L 1850.0989990234375,2037.11279296875 C 1850.0989990234375,2042.635640467058 1845.6218465217455,2047.11279296875 1840.0989990234375,2047.11279296875 L 1616.0989990234375,2047.11279296875 C 1610.5761515254376,2047.11279296875 1606.0989990234375,2042.63564046675 1606.0989990234375,2037.11279296875 L 1606.0989990234375,1928.11279296875 C 1606.0989990234375,1922.58994547075 1610.5761515254376,1918.11279296875 1616.0989990234375,1918.11279296875 L 1840.0989990234375,1918.11279296875 C 1845.6218465214374,1918.11279296875 1850.0989990234375,1922.58994547075 1850.0989990234375,1928.11279296875 Z " stroke="none" fill="#F9DDB0"></path><path d="M 1850.0989990234375,1982.61279296875 L 1850.0989990234375,2037.11279296875 C 1850.0989990234375,2042.635640467058 1845.6218465217455,2047.11279296875 1840.0989990234375,2047.11279296875 L 1616.0989990234375,2047.11279296875 C 1610.5761515254376,2047.11279296875 1606.0989990234375,2042.63564046675 1606.0989990234375,2037.11279296875 L 1606.0989990234375,1928.11279296875 C 1606.0989990234375,1922.58994547075 1610.5761515254376,1918.11279296875 1616.0989990234375,1918.11279296875 L 1840.0989990234375,1918.11279296875 C 1845.6218465214374,1918.11279296875 1850.0989990234375,1922.58994547075 1850.0989990234375,1928.11279296875 Z " stroke="#F9DDB0" fill="none" stroke-width="7.0" stroke-dasharray="" stroke-dashoffset="0.0" stroke-linecap="round" stroke-linejoin="round"></path></g>
<g transform="matrix(1.0, 0.0, 0.0, 1.0, 0.0, 0.0)"><g transform="translate(1625.0989990234375 1970.11279296875)"><text fill="#595959" x="40.1083984375" y="0.0" font-family="Futura-Medium" font-size="38.0">Simplify </text><text fill="#595959" x="5.1142578125" y="50.1318359375" font-family="Futura-Medium" font-size="38.0">Zettelkasten</text></g></g>
<g transform="matrix(1.0, 0.0, 0.0, 1.0, 0.0, 0.0)"><path d="M 2074.0989990234375,949.61279296875 L 2074.0989990234375,972.11279296875 C 2074.0989990234375,977.63564046675 2069.6218465214374,982.11279296875 2064.0989990234375,982.11279296875 L 1920.0989990234375,982.11279296875 C 1914.5761515254376,982.11279296875 1910.0989990234375,977.63564046675 1910.0989990234375,972.11279296875 L 1910.0989990234375,927.11279296875 C 1910.0989990234375,921.58994547075 1914.5761515254376,917.11279296875 1920.0989990234375,917.11279296875 L 2064.0989990234375,917.11279296875 C 2069.6218465214374,917.11279296875 2074.0989990234375,921.58994547075 2074.0989990234375,927.11279296875 Z " stroke="none" fill="#FFFFFF"></path><path d="M 2074.0989990234375,949.61279296875 L 2074.0989990234375,972.11279296875 C 2074.0989990234375,977.63564046675 2069.6218465214374,982.11279296875 2064.0989990234375,982.11279296875 L 1920.0989990234375,982.11279296875 C 1914.5761515254376,982.11279296875 1910.0989990234375,977.63564046675 1910.0989990234375,972.11279296875 L 1910.0989990234375,927.11279296875 C 1910.0989990234375,921.58994547075 1914.5761515254376,917.11279296875 1920.0989990234375,917.11279296875 L 2064.0989990234375,917.11279296875 C 2069.6218465214374,917.11279296875 2074.0989990234375,921.58994547075 2074.0989990234375,927.11279296875 Z " stroke="#91A5D1" fill="none" stroke-width="6.0" stroke-dasharray="" stroke-dashoffset="0.0" stroke-linecap="round" stroke-linejoin="round"></path></g>
<g transform="matrix(1.0, 0.0, 0.0, 1.0, 0.0, 0.0)"><g transform="translate(1929.0989990234375 959.11279296875)"><text fill="#595959" x="5.0" y="0.0" font-family="Futura-Medium" font-size="28.0">1. Reduce</text></g></g>
<g transform="matrix(1.0, 0.0, 0.0, 1.0, 0.0, 0.0)"><g transform="translate(2141.0989990234375 878.11279296875)"><text fill="#595959" x="5.0" y="0.0" font-family="Futura-Medium" font-size="23.0">Simplify the system by </text><text fill="#595959" x="5.0" y="30.68505859375" font-family="Futura-Medium" font-size="23.0">eliminating unnecessary </text><text fill="#595959" x="5.0" y="61.3701171875" font-family="Futura-Medium" font-size="23.0">elements.</text></g></g>
<g transform="matrix(1.0, 0.0, 0.0, 1.0, 0.0, 0.0)"><path d="M 2764.0989990234375,713.11279296875 L 2764.0989990234375,869.11279296875 C 2764.0989990234375,874.6356404667499 2759.6218465214374,879.11279296875 2754.0989990234375,879.11279296875 L 2474.0989990234375,879.11279296875 C 2468.5761515254376,879.11279296875 2464.0989990234375,874.6356404667499 2464.0989990234375,869.11279296875 L 2464.0989990234375,557.11279296875 C 2464.0989990234375,551.5899454707501 2468.5761515254376,547.11279296875 2474.0989990234375,547.11279296875 L 2754.0989990234375,547.11279296875 C 2759.6218465214374,547.11279296875 2764.0989990234375,551.5899454707501 2764.0989990234375,557.11279296875 Z " stroke="none" fill="#D2CFCE"></path><path d="M 2764.0989990234375,713.11279296875 L 2764.0989990234375,869.11279296875 C 2764.0989990234375,874.6356404667499 2759.6218465214374,879.11279296875 2754.0989990234375,879.11279296875 L 2474.0989990234375,879.11279296875 C 2468.5761515254376,879.11279296875 2464.0989990234375,874.6356404667499 2464.0989990234375,869.11279296875 L 2464.0989990234375,557.11279296875 C 2464.0989990234375,551.5899454707501 2468.5761515254376,547.11279296875 2474.0989990234375,547.11279296875 L 2754.0989990234375,547.11279296875 C 2759.6218465214374,547.11279296875 2764.0989990234375,551.5899454707501 2764.0989990234375,557.11279296875 Z " stroke="#91A5D1" fill="none" stroke-width="4.0" stroke-dasharray="" stroke-dashoffset="0.0" stroke-linecap="round" stroke-linejoin="round"></path></g>
<g transform="matrix(1.0, 0.0, 0.0, 1.0, 0.0, 0.0)"><g transform="translate(2483.0989990234375 582.11279296875)"><text fill="#000000" x="5.0" y="0.0" font-family="Futura-Medium" font-size="21.0">Too many tags or </text><text fill="#000000" x="5.0" y="27.62548828125" font-family="Futura-Medium" font-size="21.0">categories can clutter the </text><text fill="#000000" x="5.0" y="55.2509765625" font-family="Futura-Medium" font-size="21.0">Zettelkasten and make it </text><text fill="#000000" x="5.0" y="82.87646484375" font-family="Futura-Medium" font-size="21.0">difficult to find relevant </text><text fill="#000000" x="5.0" y="110.501953125" font-family="Futura-Medium" font-size="21.0">notes.  By reducing the </text><text fill="#000000" x="5.0" y="138.12744140625" font-family="Futura-Medium" font-size="21.0">number of tags and </text><text fill="#000000" x="5.0" y="165.7529296875" font-family="Futura-Medium" font-size="21.0">categories to only the most </text><text fill="#000000" x="5.0" y="193.37841796875" font-family="Futura-Medium" font-size="21.0">essential ones, you can </text><text fill="#000000" x="5.0" y="221.00390625" font-family="Futura-Medium" font-size="21.0">streamline the organization </text><text fill="#000000" x="5.0" y="248.62939453125" font-family="Futura-Medium" font-size="21.0">and make it easier to </text><text fill="#000000" x="5.0" y="276.2548828125" font-family="Futura-Medium" font-size="21.0">navigate through the notes.</text></g></g>
<g transform="matrix(1.0, 0.0, 0.0, 1.0, 0.0, 0.0)"><g transform="translate(2831.0989990234375 720.11279296875)"><text fill="#595959" x="5.0" y="0.0" font-family="Futura-Medium" font-size="21.0">Forum Obsidian</text></g></g>
<g transform="matrix(1.0, 0.0, 0.0, 1.0, 0.0, 0.0)"><g transform="translate(2471.0989990234375 929.11279296875)"><text fill="#595959" x="5.0" y="0.0" font-family="Futura-Medium" font-size="21.0">The Zettelkasten may have an </text><text fill="#595959" x="5.0" y="27.62548828125" font-family="Futura-Medium" font-size="21.0">abundance of features that </text><text fill="#595959" x="5.0" y="55.2509765625" font-family="Futura-Medium" font-size="21.0">are rarely used or confusing </text><text fill="#595959" x="5.0" y="82.87646484375" font-family="Futura-Medium" font-size="21.0">to navigate.  By streamlining </text><text fill="#595959" x="5.0" y="110.501953125" font-family="Futura-Medium" font-size="21.0">the interface and removing </text><text fill="#595959" x="5.0" y="138.12744140625" font-family="Futura-Medium" font-size="21.0">extraneous features, users </text><text fill="#595959" x="5.0" y="165.7529296875" font-family="Futura-Medium" font-size="21.0">can focus on the core </text><text fill="#595959" x="5.0" y="193.37841796875" font-family="Futura-Medium" font-size="21.0">functionality of creating and </text><text fill="#595959" x="5.0" y="221.00390625" font-family="Futura-Medium" font-size="21.0">organizing notes without </text><text fill="#595959" x="5.0" y="248.62939453125" font-family="Futura-Medium" font-size="21.0">feeling overwhelmed.</text></g></g>
<g transform="matrix(1.0, 0.0, 0.0, 1.0, 0.0, 0.0)"><path d="M 2105.0989990234375,1723.61279296875 L 2105.0989990234375,1746.11279296875 C 2105.0989990234375,1751.63564046675 2100.6218465214374,1756.11279296875 2095.0989990234375,1756.11279296875 L 1920.0989990234375,1756.11279296875 C 1914.5761515254376,1756.11279296875 1910.0989990234375,1751.63564046675 1910.0989990234375,1746.11279296875 L 1910.0989990234375,1701.11279296875 C 1910.0989990234375,1695.58994547075 1914.5761515254376,1691.11279296875 1920.0989990234375,1691.11279296875 L 2095.0989990234375,1691.11279296875 C 2100.6218465214374,1691.11279296875 2105.0989990234375,1695.58994547075 2105.0989990234375,1701.11279296875 Z " stroke="none" fill="#FFFFFF"></path><path d="M 2105.0989990234375,1723.61279296875 L 2105.0989990234375,1746.11279296875 C 2105.0989990234375,1751.63564046675 2100.6218465214374,1756.11279296875 2095.0989990234375,1756.11279296875 L 1920.0989990234375,1756.11279296875 C 1914.5761515254376,1756.11279296875 1910.0989990234375,1751.63564046675 1910.0989990234375,1746.11279296875 L 1910.0989990234375,1701.11279296875 C 1910.0989990234375,1695.58994547075 1914.5761515254376,1691.11279296875 1920.0989990234375,1691.11279296875 L 2095.0989990234375,1691.11279296875 C 2100.6218465214374,1691.11279296875 2105.0989990234375,1695.58994547075 2105.0989990234375,1701.11279296875 Z " stroke="#F99C5E" fill="none" stroke-width="6.0" stroke-dasharray="" stroke-dashoffset="0.0" stroke-linecap="round" stroke-linejoin="round"></path></g>
<g transform="matrix(1.0, 0.0, 0.0, 1.0, 0.0, 0.0)"><g transform="translate(1929.0989990234375 1733.11279296875)"><text fill="#595959" x="5.0" y="0.0" font-family="Futura-Medium" font-size="28.0">2. Organize</text></g></g>
<g transform="matrix(1.0, 0.0, 0.0, 1.0, 0.0, 0.0)"><g transform="translate(2172.0989990234375 1621.11279296875)"><text fill="#595959" x="5.0" y="0.0" font-family="Futura-Medium" font-size="23.0">Arrange the elements of </text><text fill="#595959" x="5.0" y="30.68505859375" font-family="Futura-Medium" font-size="23.0">the Zettelkasten in a </text><text fill="#595959" x="5.0" y="61.3701171875" font-family="Futura-Medium" font-size="23.0">logical and intuitive </text><text fill="#595959" x="5.0" y="92.05517578125" font-family="Futura-Medium" font-size="23.0">manner.</text></g></g>
<g transform="matrix(1.0, 0.0, 0.0, 1.0, 0.0, 0.0)"><g transform="translate(2505.0989990234375 1236.11279296875)"><text fill="#595959" x="5.0" y="0.0" font-family="Futura-Medium" font-size="21.0">Notes in the Zettelkasten </text><text fill="#595959" x="5.0" y="27.62548828125" font-family="Futura-Medium" font-size="21.0">might become disorganized </text><text fill="#595959" x="5.0" y="55.2509765625" font-family="Futura-Medium" font-size="21.0">over time, making it difficult </text><text fill="#595959" x="5.0" y="82.87646484375" font-family="Futura-Medium" font-size="21.0">for users to find the </text><text fill="#595959" x="5.0" y="110.501953125" font-family="Futura-Medium" font-size="21.0">information they need.  </text><text fill="#595959" x="5.0" y="138.12744140625" font-family="Futura-Medium" font-size="21.0">Implementing a clear system </text><text fill="#595959" x="5.0" y="165.7529296875" font-family="Futura-Medium" font-size="21.0">for categorizing and tagging </text><text fill="#595959" x="5.0" y="193.37841796875" font-family="Futura-Medium" font-size="21.0">notes, along with providing </text><text fill="#595959" x="5.0" y="221.00390625" font-family="Futura-Medium" font-size="21.0">tools for easily searching and </text><text fill="#595959" x="5.0" y="248.62939453125" font-family="Futura-Medium" font-size="21.0">filtering content, can improve </text><text fill="#595959" x="5.0" y="276.2548828125" font-family="Futura-Medium" font-size="21.0">the organization and usability </text><text fill="#595959" x="5.0" y="303.88037109375" font-family="Futura-Medium" font-size="21.0">of the system.</text></g></g>
<g transform="matrix(1.0, 0.0, 0.0, 1.0, 0.0, 0.0)"><g transform="translate(2865.0989990234375 1556.11279296875)"><text fill="#595959" x="5.0" y="0.0" font-family="Futura-Medium" font-size="21.0">Forum Obsidian</text></g></g>
<g transform="matrix(1.0, 0.0, 0.0, 1.0, 0.0, 0.0)"><g transform="translate(2505.0989990234375 1612.11279296875)"><text fill="#595959" x="5.0" y="0.0" font-family="Futura-Medium" font-size="21.0">Without proper organization, </text><text fill="#595959" x="5.0" y="27.62548828125" font-family="Futura-Medium" font-size="21.0">it's easy for notes to become </text><text fill="#595959" x="5.0" y="55.2509765625" font-family="Futura-Medium" font-size="21.0">disorganized and difficult to </text><text fill="#595959" x="5.0" y="82.87646484375" font-family="Futura-Medium" font-size="21.0">find when needed.  By </text><text fill="#595959" x="5.0" y="110.501953125" font-family="Futura-Medium" font-size="21.0">organizing notes using a </text><text fill="#595959" x="5.0" y="138.12744140625" font-family="Futura-Medium" font-size="21.0">hierarchical structure or </text><text fill="#595959" x="5.0" y="165.7529296875" font-family="Futura-Medium" font-size="21.0">through a clear system of </text><text fill="#595959" x="5.0" y="193.37841796875" font-family="Futura-Medium" font-size="21.0">linking related notes, users </text><text fill="#595959" x="5.0" y="221.00390625" font-family="Futura-Medium" font-size="21.0">can quickly locate the </text><text fill="#595959" x="5.0" y="248.62939453125" font-family="Futura-Medium" font-size="21.0">information they need within </text><text fill="#595959" x="5.0" y="276.2548828125" font-family="Futura-Medium" font-size="21.0">the Zettelkasten.</text></g></g>
<g transform="matrix(1.0, 0.0, 0.0, 1.0, 0.0, 0.0)"><path d="M 2042.0989990234375,2229.61279296875 L 2042.0989990234375,2252.11279296875 C 2042.0989990234375,2257.63564046675 2037.6218465214374,2262.11279296875 2032.0989990234375,2262.11279296875 L 1920.0989990234375,2262.11279296875 C 1914.5761515254376,2262.11279296875 1910.0989990234375,2257.63564046675 1910.0989990234375,2252.11279296875 L 1910.0989990234375,2207.11279296875 C 1910.0989990234375,2201.58994547075 1914.5761515254376,2197.11279296875 1920.0989990234375,2197.11279296875 L 2032.0989990234375,2197.11279296875 C 2037.6218465214374,2197.11279296875 2042.0989990234375,2201.58994547075 2042.0989990234375,2207.11279296875 Z " stroke="none" fill="#FFFFFF"></path><path d="M 2042.0989990234375,2229.61279296875 L 2042.0989990234375,2252.11279296875 C 2042.0989990234375,2257.63564046675 2037.6218465214374,2262.11279296875 2032.0989990234375,2262.11279296875 L 1920.0989990234375,2262.11279296875 C 1914.5761515254376,2262.11279296875 1910.0989990234375,2257.63564046675 1910.0989990234375,2252.11279296875 L 1910.0989990234375,2207.11279296875 C 1910.0989990234375,2201.58994547075 1914.5761515254376,2197.11279296875 1920.0989990234375,2197.11279296875 L 2032.0989990234375,2197.11279296875 C 2037.6218465214374,2197.11279296875 2042.0989990234375,2201.58994547075 2042.0989990234375,2207.11279296875 Z " stroke="#FECB88" fill="none" stroke-width="6.0" stroke-dasharray="" stroke-dashoffset="0.0" stroke-linecap="round" stroke-linejoin="round"></path></g>
<g transform="matrix(1.0, 0.0, 0.0, 1.0, 0.0, 0.0)"><g transform="translate(1929.0989990234375 2239.11279296875)"><text fill="#595959" x="5.0" y="0.0" font-family="Futura-Medium" font-size="28.0">3. Time</text></g></g>
<g transform="matrix(1.0, 0.0, 0.0, 1.0, 0.0, 0.0)"><g transform="translate(2109.0989990234375 2105.11279296875)"><text fill="#595959" x="5.0" y="0.0" font-family="Futura-Medium" font-size="23.0">Minimize the time and </text><text fill="#595959" x="5.0" y="30.68505859375" font-family="Futura-Medium" font-size="23.0">effort required for users to </text><text fill="#595959" x="5.0" y="61.3701171875" font-family="Futura-Medium" font-size="23.0">accomplish tasks.</text></g></g>
<g transform="matrix(1.0, 0.0, 0.0, 1.0, 0.0, 0.0)"><g transform="translate(2467.0989990234375 1947.11279296875)"><text fill="#595959" x="5.0" y="0.0" font-family="Futura-Medium" font-size="21.0">When adding new notes to </text><text fill="#595959" x="5.0" y="27.62548828125" font-family="Futura-Medium" font-size="21.0">the Zettelkasten, a </text><text fill="#595959" x="5.0" y="55.2509765625" font-family="Futura-Medium" font-size="21.0">cumbersome process could </text><text fill="#595959" x="5.0" y="82.87646484375" font-family="Futura-Medium" font-size="21.0">slow down productivity.  </text><text fill="#595959" x="5.0" y="110.501953125" font-family="Futura-Medium" font-size="21.0">Implementing shortcuts or </text><text fill="#595959" x="5.0" y="138.12744140625" font-family="Futura-Medium" font-size="21.0">templates for creating new </text><text fill="#595959" x="5.0" y="165.7529296875" font-family="Futura-Medium" font-size="21.0">notes can save time and </text><text fill="#595959" x="5.0" y="193.37841796875" font-family="Futura-Medium" font-size="21.0">make the note-taking process </text><text fill="#595959" x="5.0" y="221.00390625" font-family="Futura-Medium" font-size="21.0">more efficient.</text></g></g>
<g transform="matrix(1.0, 0.0, 0.0, 1.0, 0.0, 0.0)"><g transform="translate(2824.0989990234375 2184.11279296875)"><text fill="#595959" x="5.0" y="0.0" font-family="Futura-Medium" font-size="21.0">Forum Obsidian</text></g></g>
<g transform="matrix(1.0, 0.0, 0.0, 1.0, 0.0, 0.0)"><g transform="translate(2109.0989990234375 2242.11279296875)"><text fill="#595959" x="5.0" y="0.0" font-family="Futura-Medium" font-size="23.0">Savings in time feel like </text><text fill="#595959" x="5.0" y="30.68505859375" font-family="Futura-Medium" font-size="23.0">simplicity.</text></g></g>
<g transform="matrix(1.0, 0.0, 0.0, 1.0, 0.0, 0.0)"><path d="M 2054.0989990234375,2645.61279296875 L 2054.0989990234375,2668.11279296875 C 2054.0989990234375,2673.635640467058 2049.6218465217453,2678.11279296875 2044.0989990234375,2678.11279296875 L 1920.0989990234375,2678.11279296875 C 1914.5761515254376,2678.11279296875 1910.0989990234375,2673.63564046675 1910.0989990234375,2668.11279296875 L 1910.0989990234375,2623.11279296875 C 1910.0989990234375,2617.58994547075 1914.5761515254376,2613.11279296875 1920.0989990234375,2613.11279296875 L 2044.0989990234375,2613.11279296875 C 2049.6218465214374,2613.11279296875 2054.0989990234375,2617.58994547075 2054.0989990234375,2623.11279296875 Z " stroke="none" fill="#FFFFFF"></path><path d="M 2054.0989990234375,2645.61279296875 L 2054.0989990234375,2668.11279296875 C 2054.0989990234375,2673.635640467058 2049.6218465217453,2678.11279296875 2044.0989990234375,2678.11279296875 L 1920.0989990234375,2678.11279296875 C 1914.5761515254376,2678.11279296875 1910.0989990234375,2673.63564046675 1910.0989990234375,2668.11279296875 L 1910.0989990234375,2623.11279296875 C 1910.0989990234375,2617.58994547075 1914.5761515254376,2613.11279296875 1920.0989990234375,2613.11279296875 L 2044.0989990234375,2613.11279296875 C 2049.6218465214374,2613.11279296875 2054.0989990234375,2617.58994547075 2054.0989990234375,2623.11279296875 Z " stroke="#82CDAB" fill="none" stroke-width="6.0" stroke-dasharray="" stroke-dashoffset="0.0" stroke-linecap="round" stroke-linejoin="round"></path></g>
<g transform="matrix(1.0, 0.0, 0.0, 1.0, 0.0, 0.0)"><g transform="translate(1929.0989990234375 2655.11279296875)"><text fill="#595959" x="5.0" y="0.0" font-family="Futura-Medium" font-size="28.0">4. Learn</text></g></g>
<g transform="matrix(1.0, 0.0, 0.0, 1.0, 0.0, 0.0)"><g transform="translate(2121.0989990234375 2573.11279296875)"><text fill="#595959" x="5.0" y="0.0" font-family="Futura-Medium" font-size="23.0">Make it easy for users to </text><text fill="#595959" x="5.0" y="30.68505859375" font-family="Futura-Medium" font-size="23.0">understand how to use the </text><text fill="#595959" x="5.0" y="61.3701171875" font-family="Futura-Medium" font-size="23.0">Zettelkasten effectively.</text></g></g>
<g transform="matrix(1.0, 0.0, 0.0, 1.0, 0.0, 0.0)"><g transform="translate(2478.0989990234375 2332.11279296875)"><text fill="#595959" x="5.0" y="0.0" font-family="Futura-Medium" font-size="21.0">New users may struggle to </text><text fill="#595959" x="5.0" y="27.62548828125" font-family="Futura-Medium" font-size="21.0">grasp the concept of a </text><text fill="#595959" x="5.0" y="55.2509765625" font-family="Futura-Medium" font-size="21.0">Zettelkasten or how to </text><text fill="#595959" x="5.0" y="82.87646484375" font-family="Futura-Medium" font-size="21.0">integrate it into their </text><text fill="#595959" x="5.0" y="110.501953125" font-family="Futura-Medium" font-size="21.0">workflow.  Offering user-</text><text fill="#595959" x="5.0" y="138.12744140625" font-family="Futura-Medium" font-size="21.0">friendly onboarding </text><text fill="#595959" x="5.0" y="165.7529296875" font-family="Futura-Medium" font-size="21.0">materials, tutorials, or </text><text fill="#595959" x="5.0" y="193.37841796875" font-family="Futura-Medium" font-size="21.0">interactive guides can help </text><text fill="#595959" x="5.0" y="221.00390625" font-family="Futura-Medium" font-size="21.0">users quickly learn how to </text><text fill="#595959" x="5.0" y="248.62939453125" font-family="Futura-Medium" font-size="21.0">use the system and leverage </text><text fill="#595959" x="5.0" y="276.2548828125" font-family="Futura-Medium" font-size="21.0">its full potential for </text><text fill="#595959" x="5.0" y="303.88037109375" font-family="Futura-Medium" font-size="21.0">knowledge management.</text></g></g>
<g transform="matrix(1.0, 0.0, 0.0, 1.0, 0.0, 0.0)"><g transform="translate(2828.0989990234375 2652.11279296875)"><text fill="#595959" x="5.0" y="0.0" font-family="Futura-Medium" font-size="21.0">GitHub: </text></g></g>
<g transform="matrix(1.0, 0.0, 0.0, 1.0, 0.0, 0.0)"><path d="M 2125.0989990234375,3015.61279296875 L 2125.0989990234375,3038.11279296875 C 2125.0989990234375,3043.63564046675 2120.6218465214374,3048.11279296875 2115.0989990234375,3048.11279296875 L 1920.0989990234375,3048.11279296875 C 1914.5761515254376,3048.11279296875 1910.0989990234375,3043.63564046675 1910.0989990234375,3038.11279296875 L 1910.0989990234375,2993.11279296875 C 1910.0989990234375,2987.58994547075 1914.5761515254376,2983.11279296875 1920.0989990234375,2983.11279296875 L 2115.0989990234375,2983.11279296875 C 2120.6218465214374,2983.11279296875 2125.0989990234375,2987.58994547075 2125.0989990234375,2993.11279296875 Z " stroke="none" fill="#FFFFFF"></path><path d="M 2125.0989990234375,3015.61279296875 L 2125.0989990234375,3038.11279296875 C 2125.0989990234375,3043.63564046675 2120.6218465214374,3048.11279296875 2115.0989990234375,3048.11279296875 L 1920.0989990234375,3048.11279296875 C 1914.5761515254376,3048.11279296875 1910.0989990234375,3043.63564046675 1910.0989990234375,3038.11279296875 L 1910.0989990234375,2993.11279296875 C 1910.0989990234375,2987.58994547075 1914.5761515254376,2983.11279296875 1920.0989990234375,2983.11279296875 L 2115.0989990234375,2983.11279296875 C 2120.6218465214374,2983.11279296875 2125.0989990234375,2987.58994547075 2125.0989990234375,2993.11279296875 Z " stroke="#44ADAE" fill="none" stroke-width="6.0" stroke-dasharray="" stroke-dashoffset="0.0" stroke-linecap="round" stroke-linejoin="round"></path></g>
<g transform="matrix(1.0, 0.0, 0.0, 1.0, 0.0, 0.0)"><g transform="translate(1929.0989990234375 3025.11279296875)"><text fill="#595959" x="5.0" y="0.0" font-family="Futura-Medium" font-size="28.0">5. Differences</text></g></g>
<g transform="matrix(1.0, 0.0, 0.0, 1.0, 0.0, 0.0)"><g transform="translate(2192.0989990234375 2913.11279296875)"><text fill="#595959" x="5.0" y="0.0" font-family="Futura-Medium" font-size="23.0">Acknowledge and </text><text fill="#595959" x="5.0" y="30.68505859375" font-family="Futura-Medium" font-size="23.0">accommodate the diverse </text><text fill="#595959" x="5.0" y="61.3701171875" font-family="Futura-Medium" font-size="23.0">needs and preferences of </text><text fill="#595959" x="5.0" y="92.05517578125" font-family="Futura-Medium" font-size="23.0">users.</text></g></g>
<g transform="matrix(1.0, 0.0, 0.0, 1.0, 0.0, 0.0)"><g transform="translate(2540.0989990234375 2730.11279296875)"><text fill="#595959" x="5.0" y="0.0" font-family="Futura-Medium" font-size="21.0">Users may have different </text><text fill="#595959" x="5.0" y="27.62548828125" font-family="Futura-Medium" font-size="21.0">preferences when it comes to </text><text fill="#595959" x="5.0" y="55.2509765625" font-family="Futura-Medium" font-size="21.0">organizing and accessing </text><text fill="#595959" x="5.0" y="82.87646484375" font-family="Futura-Medium" font-size="21.0">their notes.  Offering </text><text fill="#595959" x="5.0" y="110.501953125" font-family="Futura-Medium" font-size="21.0">customizable features, such </text><text fill="#595959" x="5.0" y="138.12744140625" font-family="Futura-Medium" font-size="21.0">as the ability to choose </text><text fill="#595959" x="5.0" y="165.7529296875" font-family="Futura-Medium" font-size="21.0">different layouts or sorting </text><text fill="#595959" x="5.0" y="193.37841796875" font-family="Futura-Medium" font-size="21.0">options, allows users to tailor </text><text fill="#595959" x="5.0" y="221.00390625" font-family="Futura-Medium" font-size="21.0">the Zettelkasten to their </text><text fill="#595959" x="5.0" y="248.62939453125" font-family="Futura-Medium" font-size="21.0">individual preferences and </text><text fill="#595959" x="5.0" y="276.2548828125" font-family="Futura-Medium" font-size="21.0">workflows.</text></g></g>
<g transform="matrix(1.0, 0.0, 0.0, 1.0, 0.0, 0.0)"><path d="M 1546.0989990234375,2728.61279296875 L 1546.0989990234375,2751.11279296875 C 1546.0989990234375,2756.63564046675 1541.6218465214374,2761.11279296875 1536.0989990234375,2761.11279296875 L 1385.0989990234375,2761.11279296875 C 1379.5761515254376,2761.11279296875 1375.0989990234375,2756.63564046675 1375.0989990234375,2751.11279296875 L 1375.0989990234375,2706.11279296875 C 1375.0989990234375,2700.58994547075 1379.5761515254376,2696.11279296875 1385.0989990234375,2696.11279296875 L 1536.0989990234375,2696.11279296875 C 1541.6218465214374,2696.11279296875 1546.0989990234375,2700.58994547075 1546.0989990234375,2706.11279296875 Z " stroke="none" fill="#FFFFFF"></path><path d="M 1546.0989990234375,2728.61279296875 L 1546.0989990234375,2751.11279296875 C 1546.0989990234375,2756.63564046675 1541.6218465214374,2761.11279296875 1536.0989990234375,2761.11279296875 L 1385.0989990234375,2761.11279296875 C 1379.5761515254376,2761.11279296875 1375.0989990234375,2756.63564046675 1375.0989990234375,2751.11279296875 L 1375.0989990234375,2706.11279296875 C 1375.0989990234375,2700.58994547075 1379.5761515254376,2696.11279296875 1385.0989990234375,2696.11279296875 L 1536.0989990234375,2696.11279296875 C 1541.6218465214374,2696.11279296875 1546.0989990234375,2700.58994547075 1546.0989990234375,2706.11279296875 Z " stroke="#E3BB82" fill="none" stroke-width="6.0" stroke-dasharray="" stroke-dashoffset="0.0" stroke-linecap="round" stroke-linejoin="round"></path></g>
<g transform="matrix(1.0, 0.0, 0.0, 1.0, 0.0, 0.0)"><g transform="translate(1394.0989990234375 2738.11279296875)"><text fill="#595959" x="5.0" y="0.0" font-family="Futura-Medium" font-size="28.0">6. Context</text></g></g>
<g transform="matrix(1.0, 0.0, 0.0, 1.0, 0.0, 0.0)"><g transform="translate(1022.0989990234375 2626.11279296875)"><text fill="#595959" x="5.0" y="0.0" font-family="Futura-Medium" font-size="23.0">Provide context to help </text><text fill="#595959" x="5.0" y="30.68505859375" font-family="Futura-Medium" font-size="23.0">users better understand the </text><text fill="#595959" x="5.0" y="61.3701171875" font-family="Futura-Medium" font-size="23.0">information within the </text><text fill="#595959" x="5.0" y="92.05517578125" font-family="Futura-Medium" font-size="23.0">Zettelkasten.</text></g></g>
<g transform="matrix(1.0, 0.0, 0.0, 1.0, 0.0, 0.0)"><g transform="translate(662.0989990234375 2443.11279296875)"><text fill="#595959" x="5.0" y="0.0" font-family="Futura-Medium" font-size="21.0">Notes in the Zettelkasten may </text><text fill="#595959" x="5.0" y="27.62548828125" font-family="Futura-Medium" font-size="21.0">lack context, making it </text><text fill="#595959" x="5.0" y="55.2509765625" font-family="Futura-Medium" font-size="21.0">challenging for users to </text><text fill="#595959" x="5.0" y="82.87646484375" font-family="Futura-Medium" font-size="21.0">understand their relevance or </text><text fill="#595959" x="5.0" y="110.501953125" font-family="Futura-Medium" font-size="21.0">significance.   Incorporating </text><text fill="#595959" x="5.0" y="138.12744140625" font-family="Futura-Medium" font-size="21.0">features such as previews, </text><text fill="#595959" x="5.0" y="165.7529296875" font-family="Futura-Medium" font-size="21.0">summaries, or links to related </text><text fill="#595959" x="5.0" y="193.37841796875" font-family="Futura-Medium" font-size="21.0">notes can provide users with </text><text fill="#595959" x="5.0" y="221.00390625" font-family="Futura-Medium" font-size="21.0">the necessary context to </text><text fill="#595959" x="5.0" y="248.62939453125" font-family="Futura-Medium" font-size="21.0">better comprehend the </text><text fill="#595959" x="5.0" y="276.2548828125" font-family="Futura-Medium" font-size="21.0">information within the system.</text></g></g>
<g transform="matrix(1.0, 0.0, 0.0, 1.0, 0.0, 0.0)"><path d="M 1546.0989990234375,2255.61279296875 L 1546.0989990234375,2278.11279296875 C 1546.0989990234375,2283.63564046675 1541.6218465214374,2288.11279296875 1536.0989990234375,2288.11279296875 L 1385.0989990234375,2288.11279296875 C 1379.5761515254376,2288.11279296875 1375.0989990234375,2283.63564046675 1375.0989990234375,2278.11279296875 L 1375.0989990234375,2233.11279296875 C 1375.0989990234375,2227.58994547075 1379.5761515254376,2223.11279296875 1385.0989990234375,2223.11279296875 L 1536.0989990234375,2223.11279296875 C 1541.6218465214374,2223.11279296875 1546.0989990234375,2227.58994547075 1546.0989990234375,2233.11279296875 Z " stroke="none" fill="#FFFFFF"></path><path d="M 1546.0989990234375,2255.61279296875 L 1546.0989990234375,2278.11279296875 C 1546.0989990234375,2283.63564046675 1541.6218465214374,2288.11279296875 1536.0989990234375,2288.11279296875 L 1385.0989990234375,2288.11279296875 C 1379.5761515254376,2288.11279296875 1375.0989990234375,2283.63564046675 1375.0989990234375,2278.11279296875 L 1375.0989990234375,2233.11279296875 C 1375.0989990234375,2227.58994547075 1379.5761515254376,2223.11279296875 1385.0989990234375,2223.11279296875 L 1536.0989990234375,2223.11279296875 C 1541.6218465214374,2223.11279296875 1546.0989990234375,2227.58994547075 1546.0989990234375,2233.11279296875 Z " stroke="#91A5D1" fill="none" stroke-width="6.0" stroke-dasharray="" stroke-dashoffset="0.0" stroke-linecap="round" stroke-linejoin="round"></path></g>
<g transform="matrix(1.0, 0.0, 0.0, 1.0, 0.0, 0.0)"><g transform="translate(1394.0989990234375 2265.11279296875)"><text fill="#595959" x="5.0" y="0.0" font-family="Futura-Medium" font-size="28.0">7. Emotion</text></g></g>
<g transform="matrix(1.0, 0.0, 0.0, 1.0, 0.0, 0.0)"><g transform="translate(1034.0989990234375 2076.11279296875)"><text fill="#595959" x="5.0" y="0.0" font-family="Futura-Medium" font-size="23.0">More emotions are better </text><text fill="#595959" x="5.0" y="30.68505859375" font-family="Futura-Medium" font-size="23.0">than less.</text></g></g>
<g transform="matrix(1.0, 0.0, 0.0, 1.0, 0.0, 0.0)"><g transform="translate(1031.0989990234375 2322.11279296875)"><text fill="#595959" x="5.0" y="0.0" font-family="Futura-Medium" font-size="23.0">Use simplicity to evoke an </text><text fill="#595959" x="5.0" y="30.68505859375" font-family="Futura-Medium" font-size="23.0">emotional response from </text><text fill="#595959" x="5.0" y="61.3701171875" font-family="Futura-Medium" font-size="23.0">users.</text></g></g>
<g transform="matrix(1.0, 0.0, 0.0, 1.0, 0.0, 0.0)"><g transform="translate(671.0989990234375 2164.11279296875)"><text fill="#595959" x="5.0" y="0.0" font-family="Futura-Medium" font-size="21.0">Designing the interface of the </text><text fill="#595959" x="5.0" y="27.62548828125" font-family="Futura-Medium" font-size="21.0">Zettelkasten with visually </text><text fill="#595959" x="5.0" y="55.2509765625" font-family="Futura-Medium" font-size="21.0">appealing elements, intuitive </text><text fill="#595959" x="5.0" y="82.87646484375" font-family="Futura-Medium" font-size="21.0">navigation, and pleasant </text><text fill="#595959" x="5.0" y="110.501953125" font-family="Futura-Medium" font-size="21.0">aesthetics can evoke a </text><text fill="#595959" x="5.0" y="138.12744140625" font-family="Futura-Medium" font-size="21.0">positive emotional response </text><text fill="#595959" x="5.0" y="165.7529296875" font-family="Futura-Medium" font-size="21.0">from users, making them </text><text fill="#595959" x="5.0" y="193.37841796875" font-family="Futura-Medium" font-size="21.0">more inclined to engage with </text><text fill="#595959" x="5.0" y="221.00390625" font-family="Futura-Medium" font-size="21.0">the system regularly.</text></g></g>
<g transform="matrix(1.0, 0.0, 0.0, 1.0, 0.0, 0.0)"><path d="M 1546.0989990234375,1828.61279296875 L 1546.0989990234375,1851.11279296875 C 1546.0989990234375,1856.63564046675 1541.6218465214374,1861.11279296875 1536.0989990234375,1861.11279296875 L 1425.0989990234375,1861.11279296875 C 1419.5761515254376,1861.11279296875 1415.0989990234375,1856.63564046675 1415.0989990234375,1851.11279296875 L 1415.0989990234375,1806.11279296875 C 1415.0989990234375,1800.58994547075 1419.5761515254376,1796.11279296875 1425.0989990234375,1796.11279296875 L 1536.0989990234375,1796.11279296875 C 1541.6218465214374,1796.11279296875 1546.0989990234375,1800.58994547075 1546.0989990234375,1806.11279296875 Z " stroke="none" fill="#FFFFFF"></path><path d="M 1546.0989990234375,1828.61279296875 L 1546.0989990234375,1851.11279296875 C 1546.0989990234375,1856.63564046675 1541.6218465214374,1861.11279296875 1536.0989990234375,1861.11279296875 L 1425.0989990234375,1861.11279296875 C 1419.5761515254376,1861.11279296875 1415.0989990234375,1856.63564046675 1415.0989990234375,1851.11279296875 L 1415.0989990234375,1806.11279296875 C 1415.0989990234375,1800.58994547075 1419.5761515254376,1796.11279296875 1425.0989990234375,1796.11279296875 L 1536.0989990234375,1796.11279296875 C 1541.6218465214374,1796.11279296875 1546.0989990234375,1800.58994547075 1546.0989990234375,1806.11279296875 Z " stroke="#F99C5E" fill="none" stroke-width="6.0" stroke-dasharray="" stroke-dashoffset="0.0" stroke-linecap="round" stroke-linejoin="round"></path></g>
<g transform="matrix(1.0, 0.0, 0.0, 1.0, 0.0, 0.0)"><g transform="translate(1434.0989990234375 1838.11279296875)"><text fill="#595959" x="5.0" y="0.0" font-family="Futura-Medium" font-size="28.0">8. Trust</text></g></g>
<g transform="matrix(1.0, 0.0, 0.0, 1.0, 0.0, 0.0)"><g transform="translate(1132.0989990234375 1638.11279296875)"><text fill="#595959" x="5.0" y="0.0" font-family="Futura-Medium" font-size="23.0">In simplicity we trust.</text></g></g>
<g transform="matrix(1.0, 0.0, 0.0, 1.0, 0.0, 0.0)"><g transform="translate(1064.0989990234375 1936.11279296875)"><text fill="#595959" x="5.0" y="0.0" font-family="Futura-Medium" font-size="23.0">Build trust with users by </text><text fill="#595959" x="5.0" y="30.68505859375" font-family="Futura-Medium" font-size="23.0">making the system reliable </text><text fill="#595959" x="5.0" y="61.3701171875" font-family="Futura-Medium" font-size="23.0">and consistent.</text></g></g>
<g transform="matrix(1.0, 0.0, 0.0, 1.0, 0.0, 0.0)"><g transform="translate(704.0989990234375 1695.11279296875)"><text fill="#595959" x="5.0" y="0.0" font-family="Futura-Medium" font-size="21.0">Ensuring that the Zettelkasten </text><text fill="#595959" x="5.0" y="27.62548828125" font-family="Futura-Medium" font-size="21.0">reliably saves and syncs </text><text fill="#595959" x="5.0" y="55.2509765625" font-family="Futura-Medium" font-size="21.0">users' notes across different </text><text fill="#595959" x="5.0" y="82.87646484375" font-family="Futura-Medium" font-size="21.0">devices, providing regular </text><text fill="#595959" x="5.0" y="110.501953125" font-family="Futura-Medium" font-size="21.0">updates and bug fixes, and </text><text fill="#595959" x="5.0" y="138.12744140625" font-family="Futura-Medium" font-size="21.0">maintaining consistent </text><text fill="#595959" x="5.0" y="165.7529296875" font-family="Futura-Medium" font-size="21.0">performance can help build </text><text fill="#595959" x="5.0" y="193.37841796875" font-family="Futura-Medium" font-size="21.0">trust with users.  It will </text><text fill="#595959" x="5.0" y="221.00390625" font-family="Futura-Medium" font-size="21.0">encouraging them to rely on </text><text fill="#595959" x="5.0" y="248.62939453125" font-family="Futura-Medium" font-size="21.0">the system for their </text><text fill="#595959" x="5.0" y="276.2548828125" font-family="Futura-Medium" font-size="21.0">knowledge management </text><text fill="#595959" x="5.0" y="303.88037109375" font-family="Futura-Medium" font-size="21.0">needs.</text></g></g>
<g transform="matrix(1.0, 0.0, 0.0, 1.0, 0.0, 0.0)"><g transform="translate(530.0989990234375 2015.11279296875)"><text fill="#595959" x="5.0" y="0.0" font-family="Futura-Medium" font-size="21.0">Obsidian</text></g></g>
<g transform="matrix(1.0, 0.0, 0.0, 1.0, 0.0, 0.0)"><path d="M 1546.0989990234375,1551.61279296875 L 1546.0989990234375,1574.11279296875 C 1546.0989990234375,1579.63564046675 1541.6218465214374,1584.11279296875 1536.0989990234375,1584.11279296875 L 1397.0989990234375,1584.11279296875 C 1391.5761515254376,1584.11279296875 1387.0989990234375,1579.63564046675 1387.0989990234375,1574.11279296875 L 1387.0989990234375,1529.11279296875 C 1387.0989990234375,1523.58994547075 1391.5761515254376,1519.11279296875 1397.0989990234375,1519.11279296875 L 1536.0989990234375,1519.11279296875 C 1541.6218465214374,1519.11279296875 1546.0989990234375,1523.58994547075 1546.0989990234375,1529.11279296875 Z " stroke="none" fill="#FFFFFF"></path><path d="M 1546.0989990234375,1551.61279296875 L 1546.0989990234375,1574.11279296875 C 1546.0989990234375,1579.63564046675 1541.6218465214374,1584.11279296875 1536.0989990234375,1584.11279296875 L 1397.0989990234375,1584.11279296875 C 1391.5761515254376,1584.11279296875 1387.0989990234375,1579.63564046675 1387.0989990234375,1574.11279296875 L 1387.0989990234375,1529.11279296875 C 1387.0989990234375,1523.58994547075 1391.5761515254376,1519.11279296875 1397.0989990234375,1519.11279296875 L 1536.0989990234375,1519.11279296875 C 1541.6218465214374,1519.11279296875 1546.0989990234375,1523.58994547075 1546.0989990234375,1529.11279296875 Z " stroke="#FECB88" fill="none" stroke-width="6.0" stroke-dasharray="" stroke-dashoffset="0.0" stroke-linecap="round" stroke-linejoin="round"></path></g>
<g transform="matrix(1.0, 0.0, 0.0, 1.0, 0.0, 0.0)"><g transform="translate(1406.0989990234375 1561.11279296875)"><text fill="#595959" x="5.0" y="0.0" font-family="Futura-Medium" font-size="28.0">9. Failure</text></g></g>
<g transform="matrix(1.0, 0.0, 0.0, 1.0, 0.0, 0.0)"><g transform="translate(1036.0989990234375 1450.11279296875)"><text fill="#595959" x="5.0" y="0.0" font-family="Futura-Medium" font-size="23.0">Simplicity should not come </text><text fill="#595959" x="5.0" y="30.68505859375" font-family="Futura-Medium" font-size="23.0">at the cost of sacrificing </text><text fill="#595959" x="5.0" y="61.3701171875" font-family="Futura-Medium" font-size="23.0">essential functionality or </text><text fill="#595959" x="5.0" y="92.05517578125" font-family="Futura-Medium" font-size="23.0">depth in a Zettelkasten.</text></g></g>
<g transform="matrix(1.0, 0.0, 0.0, 1.0, 0.0, 0.0)"><g transform="translate(677.0989990234375 1322.11279296875)"><text fill="#595959" x="5.0" y="0.0" font-family="Futura-Medium" font-size="21.0">While it's essential to strive </text><text fill="#595959" x="5.0" y="27.62548828125" font-family="Futura-Medium" font-size="21.0">for simplicity in the design </text><text fill="#595959" x="5.0" y="55.2509765625" font-family="Futura-Medium" font-size="21.0">and functionality of a </text><text fill="#595959" x="5.0" y="82.87646484375" font-family="Futura-Medium" font-size="21.0">Zettelkasten, there may be </text><text fill="#595959" x="5.0" y="110.501953125" font-family="Futura-Medium" font-size="21.0">inherent complexities in </text><text fill="#595959" x="5.0" y="138.12744140625" font-family="Futura-Medium" font-size="21.0">certain aspects of knowledge </text><text fill="#595959" x="5.0" y="165.7529296875" font-family="Futura-Medium" font-size="21.0">management or note-taking </text><text fill="#595959" x="5.0" y="193.37841796875" font-family="Futura-Medium" font-size="21.0">that cannot be entirely </text><text fill="#595959" x="5.0" y="221.00390625" font-family="Futura-Medium" font-size="21.0">eliminated.</text></g></g>
<g transform="matrix(1.0, 0.0, 0.0, 1.0, 0.0, 0.0)"><path d="M 1304.0989990234375,562.61279296875 L 1304.0989990234375,585.11279296875 C 1304.0989990234375,590.6356404667499 1299.6218465214374,595.11279296875 1294.0989990234375,595.11279296875 L 1116.0989990234375,595.11279296875 C 1110.5761515254376,595.11279296875 1106.0989990234375,590.6356404667499 1106.0989990234375,585.11279296875 L 1106.0989990234375,540.11279296875 C 1106.0989990234375,534.5899454707501 1110.5761515254376,530.11279296875 1116.0989990234375,530.11279296875 L 1294.0989990234375,530.11279296875 C 1299.6218465214374,530.11279296875 1304.0989990234375,534.5899454707501 1304.0989990234375,540.11279296875 Z " stroke="none" fill="#FFFFFF"></path><path d="M 1304.0989990234375,562.61279296875 L 1304.0989990234375,585.11279296875 C 1304.0989990234375,590.6356404667499 1299.6218465214374,595.11279296875 1294.0989990234375,595.11279296875 L 1116.0989990234375,595.11279296875 C 1110.5761515254376,595.11279296875 1106.0989990234375,590.6356404667499 1106.0989990234375,585.11279296875 L 1106.0989990234375,540.11279296875 C 1106.0989990234375,534.5899454707501 1110.5761515254376,530.11279296875 1116.0989990234375,530.11279296875 L 1294.0989990234375,530.11279296875 C 1299.6218465214374,530.11279296875 1304.0989990234375,534.5899454707501 1304.0989990234375,540.11279296875 Z " stroke="#82CDAB" fill="none" stroke-width="6.0" stroke-dasharray="" stroke-dashoffset="0.0" stroke-linecap="round" stroke-linejoin="round"></path></g>
<g transform="matrix(1.0, 0.0, 0.0, 1.0, 0.0, 0.0)"><g transform="translate(1125.0989990234375 572.11279296875)"><text fill="#595959" x="5.0" y="0.0" font-family="Futura-Medium" font-size="28.0">10. The One</text></g></g>
<g transform="matrix(1.0, 0.0, 0.0, 1.0, 0.0, 0.0)"><g transform="translate(753.0989990234375 491.11279296875)"><text fill="#595959" x="5.0" y="0.0" font-family="Futura-Medium" font-size="23.0">Focus on the one thing that </text><text fill="#595959" x="5.0" y="30.68505859375" font-family="Futura-Medium" font-size="23.0">matters most and prioritize </text><text fill="#595959" x="5.0" y="61.3701171875" font-family="Futura-Medium" font-size="23.0">it.</text></g></g>
<g transform="matrix(1.0, 0.0, 0.0, 1.0, 0.0, 0.0)"><g transform="translate(398.0989990234375 250.11279296875)"><text fill="#595959" x="5.0" y="0.0" font-family="Futura-Medium" font-size="21.0">Identify the primary purpose </text><text fill="#595959" x="5.0" y="27.62548828125" font-family="Futura-Medium" font-size="21.0">or use case of the </text><text fill="#595959" x="5.0" y="55.2509765625" font-family="Futura-Medium" font-size="21.0">Zettelkasten (e.g., note-</text><text fill="#595959" x="5.0" y="82.87646484375" font-family="Futura-Medium" font-size="21.0">taking, knowledge </text><text fill="#595959" x="5.0" y="110.501953125" font-family="Futura-Medium" font-size="21.0">management, research) and </text><text fill="#595959" x="5.0" y="138.12744140625" font-family="Futura-Medium" font-size="21.0">prioritize features and </text><text fill="#595959" x="5.0" y="165.7529296875" font-family="Futura-Medium" font-size="21.0">improvements that directly </text><text fill="#595959" x="5.0" y="193.37841796875" font-family="Futura-Medium" font-size="21.0">support that purpose.  Avoid </text><text fill="#595959" x="5.0" y="221.00390625" font-family="Futura-Medium" font-size="21.0">adding unnecessary features </text><text fill="#595959" x="5.0" y="248.62939453125" font-family="Futura-Medium" font-size="21.0">or distractions that detract </text><text fill="#595959" x="5.0" y="276.2548828125" font-family="Futura-Medium" font-size="21.0">from the core functionality of </text><text fill="#595959" x="5.0" y="303.88037109375" font-family="Futura-Medium" font-size="21.0">the system.</text></g></g>
<g transform="matrix(1.0, 0.0, 0.0, 1.0, 0.0, 0.0)"><g transform="translate(234.0989990234375 570.11279296875)"><text fill="#595959" x="5.0" y="0.0" font-family="Futura-Medium" font-size="21.0">Medium</text></g></g>
<g transform="matrix(1.0, 0.0, 0.0, 1.0, 0.0, 0.0)"></g>
</svg>